<svg xmlns="http://www.w3.org/2000/svg" xmlns:xlink="http://www.w3.org/1999/xlink"><symbol id="responsiv" viewBox="0 0 192 149"><defs><path id="a" d="M707.05 1235.44h75.21v111.08h-75.21zm42.82 101.94a3.6 3.6 0 0 0-3.63-3.57c-2 0-3.62 1.6-3.62 3.57a3.6 3.6 0 0 0 3.62 3.57c2 0 3.63-1.6 3.63-3.57zm-31.94-9.28h53.46v-81.95h-53.46zm26.32-97.4h-10.62v-32.23H875.4v58.6h-10.62v-48.15H744.25zm42.86 49.35h55.86v10.45H787.1zm111.86-18.92v83.65h-50.51v-83.65zm-25.36 4.67c0 .66.55 1.2 1.23 1.2a1.2 1.2 0 1 0 0-2.4 1.2 1.2 0 0 0-1.23 1.2zm-6.04 3.96h14.53v-1.15h-14.53zm9.7 68.54a2.9 2.9 0 0 0-2.91-2.87 2.9 2.9 0 0 0-2.92 2.87 2.9 2.9 0 0 0 2.92 2.87 2.9 2.9 0 0 0 2.91-2.87zm13.6-64.43h-34.3v57.52c6.5.05 21.18 0 34.3-.07zm-47.9 20.9v14.85H787.1v-5.73h37.44v-2.77H787.1v-6.34z"/></defs><use fill="#005494" transform="translate(-707 -1198)" xlink:href="#a"/></symbol><symbol id="verification" viewBox="0 0 116 116"><defs><path id="a" d="M1259 1277a58 58 0 1 1-116 0 58 58 0 0 1 116 0zm-34.09-14.1l-2.56-2.56-28.6 28.6-14.1-14.1-2.56 2.56 16.26 16.26.4-.4.4.4z"/></defs><use fill="#005494" transform="translate(-1143 -1219)" xlink:href="#a"/></symbol><symbol id="iphone" viewBox="0 0 75 132"><defs><path id="a" d="M439 1209.62v112.77c0 5.3-4.32 9.6-9.64 9.6h-55.72a9.62 9.62 0 0 1-9.64-9.6v-112.77c0-5.3 4.3-9.62 9.64-9.62h55.72c5.33 0 9.64 4.31 9.64 9.62zm-52.5-1.46c0 1.28.55 2.32 1.24 2.32h27.52c.7 0 1.25-1.04 1.25-2.32 0-1.28-.56-2.32-1.25-2.32h-27.52c-.69 0-1.24 1.04-1.24 2.32zm21.15 108.21a6.15 6.15 0 0 0-12.3 0 6.15 6.15 0 0 0 12.3 0zm24.13-100.15h-60.55v85.27h60.55z"/></defs><use fill="#005494" transform="translate(-364 -1200)" xlink:href="#a"/></symbol></svg>