<svg xmlns="http://www.w3.org/2000/svg" xmlns:xlink="http://www.w3.org/1999/xlink" width="192" height="149" viewBox="0 0 192 149"><defs><path id="a" d="M707.05 1235.44h75.21v111.08h-75.21zm42.82 101.94a3.6 3.6 0 0 0-3.63-3.57c-2 0-3.62 1.6-3.62 3.57a3.6 3.6 0 0 0 3.62 3.57c2 0 3.63-1.6 3.63-3.57zm-31.94-9.28h53.46v-81.95h-53.46zm26.32-97.4h-10.62v-32.23H875.4v58.6h-10.62v-48.15H744.25zm42.86 49.35h55.86v10.45H787.1zm111.86-18.92v83.65h-50.51v-83.65zm-25.36 4.67c0 .66.55 1.2 1.23 1.2a1.2 1.2 0 1 0 0-2.4 1.2 1.2 0 0 0-1.23 1.2zm-6.04 3.96h14.53v-1.15h-14.53zm9.7 68.54a2.9 2.9 0 0 0-2.91-2.87 2.9 2.9 0 0 0-2.92 2.87 2.9 2.9 0 0 0 2.92 2.87 2.9 2.9 0 0 0 2.91-2.87zm13.6-64.43h-34.3v57.52c6.5.05 21.18 0 34.3-.07zm-47.9 20.9v14.85H787.1v-5.73h37.44v-2.77H787.1v-6.34z"/></defs><use fill="#005494" transform="translate(-707 -1198)" xlink:href="#a"/></svg>