<svg xmlns="http://www.w3.org/2000/svg"><symbol id="vim" viewBox="0 0 430.12 430.12"><path d="M367.243 28.754c-59.795-1.951-100.259 31.591-121.447 100.664 10.912-4.494 21.516-6.762 31.858-6.762 21.804 0 31.455 12.237 28.879 36.776-1.278 14.86-10.911 36.482-28.879 64.858-18.039 28.423-31.513 42.61-40.464 42.61-11.621 0-22.199-21.958-31.857-65.82-3.239-12.918-9.031-45.812-17.324-98.765-7.775-49.046-28.32-71.962-61.727-68.741-14.132 1.299-35.302 14.241-63.556 38.734C42.113 91.032 21.228 109.761 0 128.471l20.225 26.112c19.303-13.562 30.595-20.311 33.731-20.311 14.802 0 28.625 23.219 41.488 69.651 11.53 42.644 23.158 85.23 34.744 127.812 17.256 46.466 38.529 69.708 63.552 69.708 40.473 0 90.028-38.065 148.469-114.223 56.537-72.909 85.725-130.352 87.694-172.341 2.595-56.115-18.29-84.851-62.66-86.125z"/></symbol><symbol id="be" viewBox="0 0 32 32"><path d="M388.432 119.12H280.659V92.35h107.782v26.77h-.009zm-179.52 109.775c6.954 10.771 10.429 23.849 10.429 39.203 0 15.878-3.918 30.122-11.889 42.704-5.071 8.326-11.367 15.359-18.932 21.021-8.52 6.548-18.607 11.038-30.203 13.437-11.633 2.403-24.224 3.617-37.787 3.617H0V81.247h129.25c32.579.53 55.676 9.969 69.315 28.506 8.184 11.369 12.239 25.011 12.239 40.868 0 16.362-4.104 29.454-12.368 39.401-4.597 5.577-11.388 10.65-20.378 15.229 13.617 4.985 23.949 12.835 30.854 23.644zM61.722 186.76h56.632c11.638 0 21.046-2.212 28.292-6.634 7.241-4.415 10.854-12.263 10.854-23.531 0-12.449-4.784-20.712-14.375-24.689-8.244-2.763-18.792-4.186-31.591-4.186H61.722v59.04zm101.231 77.515c0-13.902-5.682-23.513-17.023-28.67-6.342-2.931-15.29-4.429-26.763-4.536H61.722v71.322h56.556c11.619 0 20.612-1.521 27.102-4.694 11.704-5.834 17.573-16.937 17.573-33.422zm265.466-43.539c1.302 8.756 1.891 21.46 1.652 38.065H290.493c.77 19.266 7.421 32.739 20.035 40.449 7.607 4.835 16.83 7.196 27.63 7.196 11.388 0 20.67-2.879 27.815-8.797 3.893-3.137 7.327-7.565 10.296-13.152h51.16c-1.34 11.379-7.5 22.92-18.57 34.648-17.151 18.641-41.205 27.988-72.097 27.988-25.52 0-48.011-7.883-67.533-23.592C249.772 307.777 240 282.211 240 246.746c0-33.257 8.773-58.712 26.378-76.43 17.67-17.751 40.474-26.586 68.583-26.586 16.661 0 31.68 2.978 45.079 8.965 13.357 5.993 24.396 15.425 33.09 28.388 7.868 11.416 12.928 24.616 15.289 39.653zm-50.357 4.994c-.938-13.322-5.386-23.405-13.395-30.296-7.943-6.91-17.866-10.379-29.706-10.379-12.886 0-22.836 3.708-29.906 10.996-7.118 7.273-11.547 17.161-13.362 29.68h86.369v-.001z"/></symbol><symbol id="arrow" viewBox="0 0 32 32"><path d="M9.4 17.6c-.2.3-.4.6-.4 1 0 .8.7 1.5 1.5 1.5.4 0 .8-.2 1.1-.5l4.3-4.8 4.5 4.7c.3.3.7.5 1.1.5.8 0 1.5-.7 1.5-1.5 0-.4-.2-.7-.4-1l-5.6-6c-.3-.3-.7-.5-1.1-.5s-.8.2-1.1.5l-5.4 6.1zM0 16.2C.1 25 7.4 32.1 16.2 32S32.1 24.6 32 15.8 24.6-.1 15.8 0-.1 7.4 0 16.2zm29-.4c.1 7.2-5.7 13.1-12.8 13.2S3.1 23.3 3 16.2 8.7 3.1 15.8 3 28.9 8.7 29 15.8z"/></symbol><symbol id="fb" viewBox="0 0 96.12 96.12"><path d="M72.089.02L59.624 0C45.62 0 36.57 9.285 36.57 23.656v10.907H24.037a1.96 1.96 0 0 0-1.96 1.961v15.803a1.96 1.96 0 0 0 1.96 1.96H36.57v39.876a1.96 1.96 0 0 0 1.96 1.96h16.352a1.96 1.96 0 0 0 1.96-1.96V54.287h14.654a1.96 1.96 0 0 0 1.96-1.96l.006-15.803a1.963 1.963 0 0 0-1.961-1.961H56.842v-9.246c0-4.444 1.059-6.7 6.848-6.7l8.397-.003a1.96 1.96 0 0 0 1.959-1.96V1.98A1.96 1.96 0 0 0 72.089.02z"/></symbol><symbol id="ln" viewBox="0 0 430.12 430.12"><path d="M430.117 261.543V420.56h-92.188V272.193c0-37.271-13.334-62.707-46.703-62.707-25.473 0-40.632 17.142-47.301 33.724-2.432 5.928-3.058 14.179-3.058 22.477V420.56h-92.219s1.242-251.285 0-277.32h92.21v39.309c-.187.294-.43.611-.606.896h.606v-.896c12.251-18.869 34.13-45.824 83.102-45.824 60.673-.001 106.157 39.636 106.157 124.818zM52.183 9.558C20.635 9.558 0 30.251 0 57.463c0 26.619 20.038 47.94 50.959 47.94h.616c32.159 0 52.159-21.317 52.159-47.94-.606-27.212-20-47.905-51.551-47.905zM5.477 420.56h92.184V143.24H5.477v277.32z"/></symbol><symbol id="tw" viewBox="0 0 612 612"><path fill="#010002" d="M612 116.258a250.714 250.714 0 0 1-72.088 19.772c25.929-15.527 45.777-40.155 55.184-69.411-24.322 14.379-51.169 24.82-79.775 30.48-22.907-24.437-55.49-39.658-91.63-39.658-69.334 0-125.551 56.217-125.551 125.513 0 9.828 1.109 19.427 3.251 28.606-104.326-5.24-196.835-55.223-258.75-131.174-10.823 18.51-16.98 40.078-16.98 63.101 0 43.559 22.181 81.993 55.835 104.479a125.556 125.556 0 0 1-56.867-15.756v1.568c0 60.806 43.291 111.554 100.693 123.104-10.517 2.83-21.607 4.398-33.08 4.398-8.107 0-15.947-.803-23.634-2.333 15.985 49.907 62.336 86.199 117.253 87.194-42.947 33.654-97.099 53.655-155.916 53.655-10.134 0-20.116-.612-29.944-1.721 55.567 35.681 121.536 56.485 192.438 56.485 230.948 0 357.188-191.291 357.188-357.188l-.421-16.253c24.666-17.593 46.005-39.697 62.794-64.861z"/></symbol></svg>