<svg xmlns="http://www.w3.org/2000/svg" xmlns:xlink="http://www.w3.org/1999/xlink" width="75" height="132" viewBox="0 0 75 132"><defs><path id="a" d="M439 1209.62v112.77c0 5.3-4.32 9.6-9.64 9.6h-55.72a9.62 9.62 0 0 1-9.64-9.6v-112.77c0-5.3 4.3-9.62 9.64-9.62h55.72c5.33 0 9.64 4.31 9.64 9.62zm-52.5-1.46c0 1.28.55 2.32 1.24 2.32h27.52c.7 0 1.25-1.04 1.25-2.32 0-1.28-.56-2.32-1.25-2.32h-27.52c-.69 0-1.24 1.04-1.24 2.32zm21.15 108.21a6.15 6.15 0 0 0-12.3 0 6.15 6.15 0 0 0 12.3 0zm24.13-100.15h-60.55v85.27h60.55z"/></defs><use fill="#005494" transform="translate(-364 -1200)" xlink:href="#a"/></svg>